<?xml version="1.0" encoding="UTF-8"?>
<svg width="1920" height="1080" version="1.1" viewBox="0 0 508 285.75" xmlns="http://www.w3.org/2000/svg" xmlns:cc="http://creativecommons.org/ns#" xmlns:dc="http://purl.org/dc/elements/1.1/" xmlns:rdf="http://www.w3.org/1999/02/22-rdf-syntax-ns#" xmlns:xlink="http://www.w3.org/1999/xlink">
 <defs>
  <radialGradient id="radialGradient1210" cx="256.36" cy="144.67" r="263.64" gradientTransform="matrix(.3405 -.36989 .41507 .38209 109.02 184.22)" gradientUnits="userSpaceOnUse">
   <stop stop-color="#052d47" stop-opacity="0" offset="0"/>
   <stop stop-color="#052d47" offset="1"/>
  </radialGradient>
 </defs>
 <metadata>
  <rdf:RDF>
   <cc:Work rdf:about="">
    <dc:format>image/svg+xml</dc:format>
    <dc:type rdf:resource="http://purl.org/dc/dcmitype/StillImage"/>
    <dc:title/>
   </cc:Work>
  </rdf:RDF>
 </metadata>
 <rect width="508" height="285.75" fill="#fff" stroke-width=".27548"/>
 <g transform="matrix(.26458 0 0 .26458 89.58 -100.42)">
  <rect width="125" height="220" fill="#1b262c"/>
  <rect x="125" width="125" height="220" fill="#0f4c75"/>
  <rect x="250" width="125" height="220" fill="#3282b8"/>
  <rect x="375" width="125" height="220" fill="#bbe1fa"/>
  <text x="10" y="235" alignment-baseline="middle" font-family="Arial" font-size="6px">Exported from Coolors.co</text>
  <text x="490" y="235" alignment-baseline="middle" font-family="Arial" font-size="6px" text-anchor="end">https://coolors.co/1b262c-0f4c75-3282b8-bbe1fa</text>
 </g>
 <rect x="-7.276" y="-4.0632" width="527.28" height="297.47" fill="url(#radialGradient1210)"/>
 <g fill="#fff">
  <circle cx="254" cy="147.71" r="92.226" fill-opacity=".67073"/>
  <circle cx="254" cy="145.6" r="105.83" fill-opacity=".14228"/>
  <circle cx="254.36" cy="144.87" r="74.839"/>
 </g>
 <path d="m235.61 168.63c1.4621 2.6821 2.5515 5.1578 5.8077 6.0401 1.4219 0.3853 3.1783-0.062 4.57-0.38436 4.2498-0.98446 8.5034-3.1906 10.08-7.5556 0.0252-0.0698 0.0237 0.14644 0.0357 0.21964 0.0881 0.53643 0.12194 0.83945 0.16662 1.4167 0.0916 1.1832 0.23651 2.7328-0.47604 3.7778-1.0973 1.6092-4.3204 2.2585-6.0933 1.9109-0.55824-0.10946-0.85693-0.48506-1.1663-0.60401" fill="none" stroke="#000" stroke-width=".26458px"/>
 <g fill="#b3b3b3">
  <ellipse cx="39.688" cy="42.522" rx="18.143" ry="9.2604"/>
  <ellipse cx="60.854" cy="37.42" rx="12.473" ry="6.8036"/>
  <ellipse cx="73.516" cy="46.869" rx="17.954" ry="6.8036"/>
  <ellipse cx="75.406" cy="41.955" rx="7.7485" ry="4.5357"/>
  <ellipse cx="54.051" cy="51.405" rx="10.961" ry="4.1577"/>
  <g transform="matrix(.59091 0 0 .59091 123.34 50.322)">
   <ellipse cx="39.688" cy="42.522" rx="18.143" ry="9.2604"/>
   <ellipse cx="60.854" cy="37.42" rx="12.473" ry="6.8036"/>
   <ellipse cx="73.516" cy="46.869" rx="17.954" ry="6.8036"/>
   <ellipse cx="75.406" cy="41.955" rx="7.7485" ry="4.5357"/>
   <ellipse cx="54.051" cy="51.405" rx="10.961" ry="4.1577"/>
  </g>
  <g transform="matrix(-.70983 0 0 .57576 496.2 47.384)">
   <ellipse cx="39.688" cy="42.522" rx="18.143" ry="9.2604"/>
   <ellipse cx="60.854" cy="37.42" rx="12.473" ry="6.8036"/>
   <ellipse cx="73.516" cy="46.869" rx="17.954" ry="6.8036"/>
   <ellipse cx="75.406" cy="41.955" rx="7.7485" ry="4.5357"/>
   <ellipse cx="54.051" cy="51.405" rx="10.961" ry="4.1577"/>
  </g>
  <g transform="matrix(1.1585 0 0 .51515 282.71 11.442)">
   <ellipse cx="39.688" cy="42.522" rx="18.143" ry="9.2604"/>
   <ellipse cx="60.854" cy="37.42" rx="12.473" ry="6.8036"/>
   <ellipse cx="73.516" cy="46.869" rx="17.954" ry="6.8036"/>
   <ellipse cx="75.406" cy="41.955" rx="7.7485" ry="4.5357"/>
   <ellipse cx="54.051" cy="51.405" rx="10.961" ry="4.1577"/>
  </g>
  <g transform="matrix(-.55307 0 0 .66667 415.34 100.54)">
   <ellipse cx="39.688" cy="42.522" rx="18.143" ry="9.2604"/>
   <ellipse cx="60.854" cy="37.42" rx="12.473" ry="6.8036"/>
   <ellipse cx="73.516" cy="46.869" rx="17.954" ry="6.8036"/>
   <ellipse cx="75.406" cy="41.955" rx="7.7485" ry="4.5357"/>
   <ellipse cx="54.051" cy="51.405" rx="10.961" ry="4.1577"/>
  </g>
 </g>
 <path d="m-52.601 117.06s46.491-35.53 131.91-37.042c85.423-1.5119 89.958 26.836 159.13 33.262 69.17 6.4256 102.05-38.176 180.67-43.845 78.619-5.6696 102.81 27.214 136.83 38.554 34.018 11.339-55.94 69.17-55.94 69.17s-89.958-7.1816-131.91 0.75595-101.3 39.688-155.35 29.482c-54.051-10.205-44.713-15.191-108.16-18.179-63.444-2.988-126.94 18.179-126.94 18.179z" fill="#fff" fill-opacity=".04065"/>
 <g display="none" fill="#85a8f4">
  <path d="m-24.568 190.5 37.042-107.72 16.631-14.363 9.4494-0.75595 5.2917-1.8899 3.0238 7.9375-1.5119 5.6696 9.4494 3.0238 7.1815 9.0714-2.6458 12.095 9.8274 8.3155-1.5119 11.717 7.1815 15.497 12.473 4.9137 1.1339-9.8274 8.6935-13.607 1.5119-12.851 9.0714-4.5357 0.75596 10.205 6.0476 7.9375 0.75595 8.6934 5.2917 8.3155 8.6935-7.1816 5.2917 3.0238 7.1816 8.3155-4.1577 4.9137 10.898 9.9958 8.0004-2.0583 5.2916-23.435 12.851-2.2678-0.75595 8.6934 7.9375 9.8274-3.4018 7.5595 9.8274 7.1816 6.4256 7.5595 4.9137 6.0476-1.8899 8.3155 4.5357 9.0714-83.155-1.8899-80.509-12.473z"/>
  <path d="m313.34 170.47 14.363-9.4494 10.961-12.095 16.253-1.8899 4.1577-10.583 17.387-4.1577 8.6934 9.4494 5.2917 9.8274 13.985 2.2679 15.119-8.6935 15.497-18.521h23.812l7.1816-20.789 9.4494-10.583 10.583-1.8899 9.0714-10.205v-2.2679l19.277 9.8274-6.4256 80.887-133.43 24.946z"/>
 </g>
 <g fill="#3282b8">
  <path d="m-35.879 196.78s24.216-38.196 69.118-38.196 60.446 2.5162 99.468 12.138c39.021 9.6217 61.036 1.4044 121.44-7.6827 60.403-9.0872 114.28 12.592 140.08 19.125 39.777 10.075 80.907-27.796 150.4-31.538 53.967-11.182 12.519 86.562 13.44 149.23l-321.26 31.538-272.08-9.6217z"/>
  <g transform="matrix(-.32347 .055699 .095226 .41036 433.12 81.496)">
   <path d="m79.129 220.36h40.09c8.2299 0-5.6869 16.04-20.023 15.653-13.203 0.49245-29.348-15.653-20.068-15.653z" stroke-width=".26458"/>
   <rect x="96.696" y="192.61" width="2.4054" height="33.141" ry="2.4054" stroke-width=".18709"/>
   <path d="m98.65 193.11 13.649 17.54c0.48658 0.62527-0.16788 2.3223-1.0453 2.3223h-11.939c-0.8774 0-1.5838-0.73039-1.5838-1.6376v-16.929c0-0.90725 0.28284-2.1122 0.91858-1.2953z" stroke-width=".36607"/>
  </g>
  <g transform="matrix(.32347 .055699 -.095226 .41036 291.5 61.487)">
   <path d="m79.129 220.36h40.09c8.2299 0-5.6869 16.04-20.023 15.653-13.203 0.49245-29.348-15.653-20.068-15.653z" stroke-width=".26458"/>
   <rect x="96.696" y="192.61" width="2.4054" height="33.141" ry="2.4054" stroke-width=".18709"/>
   <path d="m98.65 193.11 13.649 17.54c0.48658 0.62527-0.16788 2.3223-1.0453 2.3223h-11.939c-0.8774 0-1.5838-0.73039-1.5838-1.6376v-16.929c0-0.90725 0.28284-2.1122 0.91858-1.2953z" stroke-width=".36607"/>
  </g>
  <g transform="matrix(.3259 -.03908 .026036 .42046 13.539 65.968)">
   <path d="m79.129 220.36h40.09c8.2299 0-5.6869 16.04-20.023 15.653-13.203 0.49245-29.348-15.653-20.068-15.653z" stroke-width=".26458"/>
   <rect x="96.696" y="192.61" width="2.4054" height="33.141" ry="2.4054" stroke-width=".18709"/>
   <path d="m98.65 193.11 13.649 17.54c0.48658 0.62527-0.16788 2.3223-1.0453 2.3223h-11.939c-0.8774 0-1.5838-0.73039-1.5838-1.6376v-16.929c0-0.90725 0.28284-2.1122 0.91858-1.2953z" stroke-width=".36607"/>
  </g>
 </g>
 <g fill="#0f4c75">
  <path d="m-37.798 213.78s59.72-29.482 123.98-34.396c64.256-4.9137 77.863 13.985 117.93 18.899 40.065 4.9137 53.295 2.2678 88.824-11.339 35.53-13.607 57.074 10.583 105.46 9.0714 48.381-1.5119 72.77-25.035 152.42-13.275 79.646 11.76 11.532 140.07 11.532 140.07l-579.97-4.2763z"/>
  <g transform="matrix(.61746 .086874 -.15659 .75998 329.83 4.5078)">
   <path d="m79.129 220.36h40.09c8.2299 0-5.6869 16.04-20.023 15.653-13.203 0.49245-29.348-15.653-20.068-15.653z" stroke-width=".26458"/>
   <rect x="96.696" y="192.61" width="2.4054" height="33.141" ry="2.4054" stroke-width=".18709"/>
   <path d="m98.65 193.11 13.649 17.54c0.48658 0.62527-0.16788 2.3223-1.0453 2.3223h-11.939c-0.8774 0-1.5838-0.73039-1.5838-1.6376v-16.929c0-0.90725 0.28284-2.1122 0.91858-1.2953z" stroke-width=".36607"/>
  </g>
  <g transform="matrix(-.67465 -.11765 -.13365 .97371 242.97 -31.705)">
   <path d="m79.129 220.36h40.09c8.2299 0-5.6869 16.04-20.023 15.653-13.203 0.49245-29.348-15.653-20.068-15.653z" stroke-width=".26458"/>
   <rect x="96.696" y="192.61" width="2.4054" height="33.141" ry="2.4054" stroke-width=".18709"/>
   <path d="m98.65 193.11 13.649 17.54c0.48658 0.62527-0.16788 2.3223-1.0453 2.3223h-11.939c-0.8774 0-1.5838-0.73039-1.5838-1.6376v-16.929c0-0.90725 0.28284-2.1122 0.91858-1.2953z" stroke-width=".36607"/>
  </g>
  <g transform="matrix(.48308 -.068263 .095701 .56494 110.44 68.728)">
   <path d="m79.129 220.36h40.09c8.2299 0-5.6869 16.04-20.023 15.653-13.203 0.49245-29.348-15.653-20.068-15.653z" stroke-width=".26458"/>
   <rect x="96.696" y="192.61" width="2.4054" height="33.141" ry="2.4054" stroke-width=".18709"/>
   <path d="m98.65 193.11 13.649 17.54c0.48658 0.62527-0.16788 2.3223-1.0453 2.3223h-11.939c-0.8774 0-1.5838-0.73039-1.5838-1.6376v-16.929c0-0.90725 0.28284-2.1122 0.91858-1.2953z" stroke-width=".36607"/>
  </g>
 </g>
 <g fill="#1b262c">
  <path d="m-38.554 240.17s-5.6696-21.923 35.53-24.946c41.199-3.0238 67.28 15.119 100.92 15.875 33.64 0.75596 65.012-18.143 108.1-22.301 43.089-4.1577 37.42 12.473 88.446 17.387 51.027 4.9137 56.696-9.4494 117.17-19.277 60.476-9.8274 128.51 22.679 128.51 22.679l0.75594 74.461-577.93-0.37799z"/>
  <g transform="matrix(1.6409 -.29999 .28137 1.8785 -125.4 -173.74)">
   <path d="m79.129 220.36h40.09c8.2299 0-5.6869 16.04-20.023 15.653-13.203 0.49245-29.348-15.653-20.068-15.653z" stroke-width=".26458"/>
   <rect x="96.696" y="192.61" width="2.4054" height="33.141" ry="2.4054" stroke-width=".18709"/>
   <path d="m98.65 193.11 13.649 17.54c0.48658 0.62527-0.16788 2.3223-1.0453 2.3223h-11.939c-0.8774 0-1.5838-0.73039-1.5838-1.6376v-16.929c0-0.90725 0.28284-2.1122 0.91858-1.2953z" stroke-width=".36607"/>
  </g>
  <g transform="matrix(.9721 .063412 -.14752 1.2465 383.29 -87.933)">
   <path d="m79.129 220.36h40.09c8.2299 0-5.6869 16.04-20.023 15.653-13.203 0.49245-29.348-15.653-20.068-15.653z" stroke-width=".26458"/>
   <rect x="96.696" y="192.61" width="2.4054" height="33.141" ry="2.4054" stroke-width=".18709"/>
   <path d="m98.65 193.11 13.649 17.54c0.48658 0.62527-0.16788 2.3223-1.0453 2.3223h-11.939c-0.8774 0-1.5838-0.73039-1.5838-1.6376v-16.929c0-0.90725 0.28284-2.1122 0.91858-1.2953z" stroke-width=".36607"/>
  </g>
 </g>
</svg>
